<svg id="Layer_1" data-name="Layer 1" xmlns="http://www.w3.org/2000/svg" viewBox="0 0 262.52 86.7"><defs><style>.cls-1{fill:#e2231a;}.cls-2{fill:#fff;}.cls-3{fill:#010101;}</style></defs><title>CoderDojoNSW_horizontal</title><path class="cls-1" d="M236.94,168.59a3.31,3.31,0,1,0-4.62,4.74,96.23,96.23,0,0,1,12.15,15.15c5.07,7.89,10.53,19.44,7.83,29.79s-13.08,17.94-30.9,22.8c-17.79-4.86-28.2-12.54-30.9-22.8-5.25-20.1,19.68-44.67,20-44.94a3.31,3.31,0,1,0-4.62-4.74c-1.14,1.11-28,27.51-21.75,51.33,3.39,12.9,15.63,22.26,36.45,27.75h0l.39.09H221c.12,0,.24,0,.39,0h0a1.85,1.85,0,0,0,.39,0h.06a1.83,1.83,0,0,0,.39-.09h0c20.79-5.52,33.06-14.85,36.45-27.75C264.93,196.1,238.08,169.7,236.94,168.59Z" transform="translate(-167.13 -166.4)"/><path class="cls-2" d="M234.63,167.66a3.29,3.29,0,0,1,2.31.93c1.14,1.11,28,27.51,21.75,51.33-3.39,12.9-15.63,22.26-36.45,27.75h0l-.39.09h-.06c-.12,0-.24,0-.39,0h0a1.85,1.85,0,0,1-.39,0h-.06a1.83,1.83,0,0,1-.39-.09h0c-20.79-5.52-33.06-14.85-36.45-27.75-6.24-23.82,20.61-50.22,21.75-51.33a3.24,3.24,0,0,1,2.31-.93,3.3,3.3,0,0,1,2.31,5.67c-.27.27-25.23,24.84-20,44.94,2.7,10.26,13.08,17.94,30.9,22.8,17.82-4.86,28.2-12.54,30.9-22.8s-2.76-21.9-7.83-29.79a94.06,94.06,0,0,0-12.15-15.15,3.29,3.29,0,0,1-.06-4.68,3.37,3.37,0,0,1,2.37-1m0-1.2a4.5,4.5,0,0,0-3.12,7.74,94.1,94.1,0,0,1,12,14.94c5,7.68,10.29,18.93,7.68,28.83s-12.57,17.13-29.73,21.87c-17.16-4.74-27.18-12.09-29.73-21.87-5.07-19.38,19.41-43.53,19.65-43.77a4.51,4.51,0,0,0-6.27-6.48,99.92,99.92,0,0,0-13.83,17.37,65.28,65.28,0,0,0-7.65,16.56,35.07,35.07,0,0,0-.63,18.54c3.48,13.38,16.05,23,37.29,28.65h.06l.48.09h.09a2.75,2.75,0,0,0,.48,0h.09a2.75,2.75,0,0,0,.48,0H222l.45-.09h0l.06,0c21.24-5.64,33.78-15.24,37.29-28.62a35.07,35.07,0,0,0-.63-18.54,64.81,64.81,0,0,0-7.65-16.56,99.92,99.92,0,0,0-13.83-17.37,4.3,4.3,0,0,0-3.09-1.26Z" transform="translate(-167.13 -166.4)"/><path class="cls-1" d="M247.62,196.58c-3.72-19.77-23.91-28.83-24.75-29.22h0s-.06,0-.09,0a.18.18,0,0,0-.12,0h0l-.12,0s-.06,0-.09,0-.06,0-.12,0h0c-.06,0-.09,0-.15,0h-.06a.18.18,0,0,1-.12,0c-.06,0-.09,0-.15,0H221c-.06,0-.12,0-.18,0h-.18c-.06,0-.09,0-.15,0a.11.11,0,0,0-.09,0h0s-.06,0-.09,0l-.12,0a.1.1,0,0,0-.06,0s0,0-.06,0-.06,0-.09,0h0c-.87.39-21,9.45-24.75,29.22-2.85,15.18,4.8,32,22.77,49.95l0,0,0,0,0,0a1.31,1.31,0,0,0,.21.18s.06.06.09.06.12.09.18.12.06.06.09.06.12.09.18.12l.15.09.21.09s.09,0,.12.06.12,0,.18.06l.12,0c.06,0,.15,0,.21.06a.11.11,0,0,1,.09,0,.83.83,0,0,0,.27,0h.06c.12,0,.21,0,.33,0a1.23,1.23,0,0,0,.33,0h.06c.09,0,.18,0,.24,0h.06c.06,0,.09,0,.15,0s.09,0,.15,0h.06a.75.75,0,0,0,.24,0h.06c.12,0,.21,0,.33,0a1.23,1.23,0,0,0,.33,0h.06c.09,0,.18,0,.27,0a.11.11,0,0,0,.09,0,.56.56,0,0,0,.21-.06l.12,0c.06,0,.12,0,.18-.06s.09,0,.12-.06l.18-.09.18-.09a.63.63,0,0,0,.18-.12.41.41,0,0,1,.12-.09c.06,0,.12-.09.18-.12s.06-.06.09-.06a1.31,1.31,0,0,1,.21-.18l0,0,0,0,0,0C242.82,228.56,250.47,211.76,247.62,196.58Z" transform="translate(-167.13 -166.4)"/><path class="cls-2" d="M222.27,248.39a1.71,1.71,0,0,1-.39,0h-.09l-.3,0h-.12l-.33.06h-.09a3.39,3.39,0,0,1-.78,0h-.06a1.55,1.55,0,0,1-.33-.06l-.09,0-.27-.06c-.06,0-.09,0-.15,0l-.24-.09h0a.23.23,0,0,1-.12-.06,1.78,1.78,0,0,1-.24-.12l-.18-.09a1.05,1.05,0,0,1-.24-.15.41.41,0,0,0-.12-.09c-.09-.06-.15-.12-.21-.15a.41.41,0,0,0-.12-.09c-.09-.06-.15-.15-.24-.21s0,0-.06,0l-.06-.06c-18.12-18.15-25.86-35.19-22.95-50.61,3.78-20.16,24.33-29.37,25.2-29.76l.06,0s.06,0,.12,0l.18-.06.12,0s.06,0,.12,0l.18,0,.12,0,.09,0h.18c.06,0,.12,0,.18,0h.93a.27.27,0,0,1,.15,0h.06a.18.18,0,0,1,.12,0h.06a1.3,1.3,0,0,1,.15,0l.09,0s.06,0,.12,0l.09,0a.23.23,0,0,0,.12,0l.09,0s.06,0,.12,0l.15.06c.87.39,21.39,9.6,25.2,29.76,2.91,15.42-4.83,32.46-23,50.61l-.12.09a1.72,1.72,0,0,1-.24.21.41.41,0,0,1-.12.09c-.06.06-.15.09-.21.15a.41.41,0,0,0-.12.09.75.75,0,0,1-.21.12l-.21.12a1.77,1.77,0,0,0-.24.12s-.09,0-.15.06l-.24.09a.27.27,0,0,1-.15,0l-.24.06-.12,0-.33.06h-.06A2.59,2.59,0,0,0,222.27,248.39Zm-.87-1.62.21,0a.13.13,0,0,1,.09,0h.06c.06,0,.12,0,.21,0h.6l.21,0h.06l.18-.06s.06,0,.09,0l.15-.06h0a.1.1,0,0,0,.06,0c.06,0,.09-.06.15-.06l.15-.09.15-.09s0,0,.06-.06.12-.09.15-.12.06,0,.06-.06.12-.09.15-.15l.09-.09c17.76-17.79,25.35-34.38,22.56-49.29-3.63-19.29-23.25-28.2-24.3-28.65a0,0,0,0,1,0,0l-.63-.18-.12,0h-.39l0-.75v.75H221l-.18,0s0,0-.06,0l-.54.18c-1.05.48-20.67,9.39-24.3,28.65-2.82,14.91,4.77,31.5,22.56,49.29l0,0,0,0c.06.06.12.09.15.15l.06.06a.66.66,0,0,0,.15.09s.06,0,.09.06l.15.09a.23.23,0,0,0,.12.06.66.66,0,0,1,.15.09l.09,0,.15.06.09,0a.38.38,0,0,0,.18,0l.09,0,.21,0h0a1.46,1.46,0,0,0,.51,0h0l.21,0h0s.06,0,.09,0Z" transform="translate(-167.13 -166.4)"/><path class="cls-1" d="M221,247.67S192.33,220,168.93,226C168.93,226,184.47,253.73,221,247.67Z" transform="translate(-167.13 -166.4)"/><path class="cls-2" d="M175.95,225.17c21.75,0,45.06,22.5,45.06,22.5a61.9,61.9,0,0,1-10.2.87A49,49,0,0,1,168.93,226a27.61,27.61,0,0,1,7-.87m0-1.2a29.13,29.13,0,0,0-7.32.9l-1.5.39.75,1.35a46.16,46.16,0,0,0,10.26,11.61,49.07,49.07,0,0,0,13.35,7.92,51.8,51.8,0,0,0,19.32,3.6,65.86,65.86,0,0,0,10.41-.87l2.34-.39-1.71-1.65a109.57,109.57,0,0,0-14.55-11.4,87.1,87.1,0,0,0-14.67-7.86,45.13,45.13,0,0,0-16.68-3.6Z" transform="translate(-167.13 -166.4)"/><path class="cls-1" d="M221.43,248.18S188.55,231,169,245.3C169,245.3,183.63,258.14,221.43,248.18Z" transform="translate(-167.13 -166.4)"/><path class="cls-2" d="M188.52,239.6c16.53,0,32.91,8.58,32.91,8.58A103.93,103.93,0,0,1,195,252c-18.39,0-26-6.69-26-6.69,5.73-4.2,12.63-5.67,19.5-5.67m0-1.08c-8,0-14.76,2-20.1,5.88l-1.11.81,1,.9c.3.27,8.1,6.93,26.64,6.93a105.13,105.13,0,0,0,26.7-3.84l2.73-.72-2.52-1.32a84.76,84.76,0,0,0-10.38-4.35c-5.7-2-14.31-4.29-23-4.29Z" transform="translate(-167.13 -166.4)"/><path class="cls-1" d="M221.85,247.67S250.53,220,273.93,226C273.9,226,258.36,253.73,221.85,247.67Z" transform="translate(-167.13 -166.4)"/><path class="cls-2" d="M266.88,225.17a27.78,27.78,0,0,1,7,.87A49,49,0,0,1,232,248.54a61.9,61.9,0,0,1-10.2-.87s23.34-22.5,45.06-22.5m0-1.2v0h0a44.87,44.87,0,0,0-16.65,3.6,81.94,81.94,0,0,0-14.67,7.86A106.77,106.77,0,0,0,221,246.83l-1.71,1.65,2.34.39a62.23,62.23,0,0,0,10.41.87,51.8,51.8,0,0,0,19.32-3.6,50.64,50.64,0,0,0,13.35-7.92A46.33,46.33,0,0,0,275,226.61l.75-1.35-1.5-.39a29.54,29.54,0,0,0-7.35-.9Z" transform="translate(-167.13 -166.4)"/><path class="cls-1" d="M221.43,248.18s32.88-17.19,52.38-2.88C273.81,245.3,259.2,258.14,221.43,248.18Z" transform="translate(-167.13 -166.4)"/><path class="cls-2" d="M254.31,239.6c6.87,0,13.77,1.5,19.5,5.67,0,0-7.59,6.69-26,6.69a104.94,104.94,0,0,1-26.43-3.78s16.38-8.58,32.88-8.58m0-1.08v0c-8.67,0-17.28,2.37-23,4.35a84.76,84.76,0,0,0-10.38,4.35l-2.52,1.32,2.73.72a106.49,106.49,0,0,0,26.7,3.84c18.54,0,26.34-6.66,26.64-6.93l1-.9-1.11-.81c-5.34-4-12.09-5.94-20.1-5.94Z" transform="translate(-167.13 -166.4)"/><path class="cls-1" d="M260.43,194A80.34,80.34,0,0,0,253,177.62a3.32,3.32,0,0,0-6.12,2c-2.1-2.4-3.63-3.9-3.87-4.11a3.29,3.29,0,0,0-4.53,4.77c.21.21,20.46,19.8,16,37.23-2.67,10.41-13.83,18.36-33.09,23.61-19.26-5.25-30.39-13.2-33.09-23.61-4.47-17.37,15.69-36.93,16-37.23a3.31,3.31,0,0,0-4.56-4.8c-.12.12-1.68,1.62-3.87,4.14a3.28,3.28,0,0,0-1.56-3,3.34,3.34,0,0,0-4.56,1A83.28,83.28,0,0,0,182.34,194c-4.11,12.66-4,24,.15,32.67,5.7,11.76,18.63,18.87,38.43,21.09h.9c19.8-2.22,32.73-9.3,38.43-21.09C264.51,218,264.57,206.66,260.43,194Z" transform="translate(-167.13 -166.4)"/><path class="cls-2" d="M202,174.56a3.3,3.3,0,0,1,2.28,5.7c-.3.3-20.46,19.86-16,37.23,2.67,10.41,13.83,18.36,33.09,23.61,19.29-5.25,30.42-13.17,33.09-23.61,4.47-17.43-15.78-37-16-37.23a3.29,3.29,0,0,1,2.28-5.67,3.32,3.32,0,0,1,2.28.9c.24.21,1.77,1.71,3.87,4.11a3.29,3.29,0,0,1,1.56-3,3.35,3.35,0,0,1,1.74-.51,3.29,3.29,0,0,1,2.82,1.56A83.28,83.28,0,0,1,260.46,194c4.11,12.66,4.05,24-.15,32.67-5.7,11.76-18.63,18.87-38.43,21.09H221c-19.8-2.22-32.73-9.3-38.43-21.09-4.23-8.7-4.29-20-.15-32.67a80.34,80.34,0,0,1,7.41-16.38,3.29,3.29,0,0,1,2.82-1.56,3.09,3.09,0,0,1,1.74.51,3.34,3.34,0,0,1,1.56,3c2.16-2.52,3.75-4,3.87-4.14a3,3,0,0,1,2.22-.93m0-1.2v0a4.51,4.51,0,0,0-3.09,1.23c-.06.06-1,1-2.43,2.52a4.23,4.23,0,0,0-1.53-1.56,4.45,4.45,0,0,0-2.37-.69,4.4,4.4,0,0,0-3.81,2.13,84.52,84.52,0,0,0-7.53,16.65c-4.23,13-4.14,24.57.21,33.57,5.91,12.15,19.14,19.47,39.36,21.75H221c.12,0,.24,0,.36,0h.09a1.46,1.46,0,0,0,.36,0h.15c20.22-2.28,33.48-9.57,39.36-21.75,4.35-9,4.44-20.61.21-33.57A82.56,82.56,0,0,0,254,177a4.51,4.51,0,0,0-3.81-2.13,4.45,4.45,0,0,0-2.37.69,4.39,4.39,0,0,0-1.5,1.56c-1.32-1.44-2.22-2.31-2.43-2.52a4.43,4.43,0,0,0-3.09-1.23,4.64,4.64,0,0,0-3.27,1.38,4.5,4.5,0,0,0,.15,6.36c.21.18,20,19.35,15.66,36.06-2.55,9.9-13.29,17.52-32,22.65-18.63-5.13-29.4-12.75-31.95-22.65-4.29-16.68,15.45-35.88,15.66-36.06a4.49,4.49,0,0,0,1.38-3.15,4.53,4.53,0,0,0-1.23-3.21,4.24,4.24,0,0,0-3.21-1.38Z" transform="translate(-167.13 -166.4)"/><path class="cls-1" d="M265.8,191.15a3.29,3.29,0,0,0-6.51,1,56.89,56.89,0,0,1,.45,7,51.49,51.49,0,0,0-4.5-11.79,3.3,3.3,0,0,0-5.73,3.27c.09.15,9.06,16.32,2.76,30.48-4.29,9.6-14.64,16.32-30.81,20-16.17-3.66-26.52-10.44-30.81-20-6.3-14.1,2.61-30.24,2.76-30.48a3.3,3.3,0,0,0-5.73-3.27,50,50,0,0,0-4.5,11.79,50.4,50.4,0,0,1,.45-7,3.29,3.29,0,0,0-6.51-1c-.15,1.08-3.87,26.52,10.38,43.11,7.71,9,19.11,13.53,33.84,13.53h.3c14.73,0,26.13-4.56,33.84-13.53C269.67,217.7,265.95,192.23,265.8,191.15Z" transform="translate(-167.13 -166.4)"/><path class="cls-2" d="M190.5,185.66a3.52,3.52,0,0,1,1.62.42,3.29,3.29,0,0,1,1.23,4.5c-.15.24-9.06,16.38-2.76,30.48,4.29,9.6,14.64,16.32,30.81,20,16.17-3.66,26.55-10.41,30.84-20,6.3-14.16-2.67-30.33-2.76-30.48a3.32,3.32,0,0,1,1.23-4.5,3.19,3.19,0,0,1,1.62-.42,3.37,3.37,0,0,1,2.88,1.65,50,50,0,0,1,4.5,11.79,50.4,50.4,0,0,0-.45-7,3.29,3.29,0,0,1,2.76-3.75,2.91,2.91,0,0,1,.51,0,3.34,3.34,0,0,1,3.27,2.79c.15,1.08,3.87,26.52-10.38,43.11-7.71,9-19.11,13.53-33.84,13.53h-.3c-14.73,0-26.13-4.56-33.84-13.53-14.25-16.56-10.56-42-10.38-43.11a3.29,3.29,0,0,1,3.27-2.79,2.91,2.91,0,0,1,.51,0,3.29,3.29,0,0,1,2.76,3.75,56.9,56.9,0,0,0-.45,7,51.49,51.49,0,0,1,4.5-11.79,3.29,3.29,0,0,1,2.85-1.65m0-1.2h0a4.45,4.45,0,0,0-3.9,2.28,42.82,42.82,0,0,0-1.89,3.93,4.48,4.48,0,0,0-3.72-3.45,5.36,5.36,0,0,0-.69-.06,4.54,4.54,0,0,0-4.44,3.81c-.18,1.11-4,27.09,10.68,44.07,7.95,9.24,19.65,13.95,34.77,13.95v0h.27c15.12,0,26.79-4.68,34.77-13.95,14.61-17,10.83-43,10.68-44.07a4.51,4.51,0,0,0-4.44-3.81,5.36,5.36,0,0,0-.69.06,4.56,4.56,0,0,0-3.72,3.45,42.82,42.82,0,0,0-1.89-3.93,4.45,4.45,0,0,0-6.12-1.68,4.48,4.48,0,0,0-1.68,6.12c.09.15,8.73,15.87,2.7,29.4-4.08,9.18-14.1,15.66-29.73,19.29-15.63-3.63-25.62-10.11-29.73-19.29-6-13.53,2.61-29.25,2.7-29.4a4.48,4.48,0,0,0-1.68-6.12,4.59,4.59,0,0,0-2.25-.6Z" transform="translate(-167.13 -166.4)"/><path class="cls-2" d="M246.75,184.49a35.85,35.85,0,1,0,10.5,25.35A35.6,35.6,0,0,0,246.75,184.49Zm-18.36,59.28c.57-.12,1.11-.24,1.68-.39C229.53,243.53,229,243.65,228.39,243.77Zm0-67.86c.57.12,1.11.24,1.68.39C229.53,176.15,229,176,228.39,175.91Z" transform="translate(-167.13 -166.4)"/><path class="cls-3" d="M221.43,244.49a17.31,17.31,0,1,1,0-34.62,17.31,17.31,0,1,0,0-34.62,34.62,34.62,0,1,1,0,69.24Z" transform="translate(-167.13 -166.4)"/><path class="cls-2" d="M221.43,209.84a17.31,17.31,0,1,0,0,34.62,34.65,34.65,0,1,1,0-69.3,17.34,17.34,0,0,1,0,34.68Z" transform="translate(-167.13 -166.4)"/><path id="path17" class="cls-3" d="M215.7,196.1V183.44a2.07,2.07,0,0,1,.6-1.44,2,2,0,0,1,1.44-.6h6.6a2,2,0,0,1,2,2V196.1a2,2,0,0,1-2,2h-6.57a2,2,0,0,1-1.44-.6,1.86,1.86,0,0,1-.6-1.44Zm8.55-.06V183.56H217.8V196Z" transform="translate(-167.13 -166.4)"/><path id="path19" class="cls-2" d="M218.1,234.41h3.24V221.93h-3.21a1.05,1.05,0,1,1,0-2.1h5.31v14.61h2.13V230a1,1,0,0,1,.3-.75,1,1,0,0,1,.75-.33,1,1,0,0,1,1.05,1.05v5.46a1,1,0,0,1-1.05,1h-8.55a1,1,0,0,1-.75-.33,1,1,0,0,1-.3-.75.89.89,0,0,1,.3-.72,1.26,1.26,0,0,1,.78-.3Z" transform="translate(-167.13 -166.4)"/><path class="cls-1" d="M268.29,204.17a3.31,3.31,0,0,0-3.45,3.15,37.73,37.73,0,0,1-6,16.86c-.33.51-.66,1-1,1.47A46.72,46.72,0,0,0,261.24,213a3.3,3.3,0,0,0-3-3.57,3.26,3.26,0,0,0-3.57,3,40.59,40.59,0,0,1-5.34,15.51c-.42.66-.84,1.29-1.26,1.92a17.07,17.07,0,0,0,.87-3.42,3.29,3.29,0,0,0-6.54-.78c0,.12-1.8,13.11-21,15.57-18.87-2.43-20.88-15-21-15.6a3.3,3.3,0,0,0-6.54.81,17.07,17.07,0,0,0,.87,3.42c-.45-.63-.87-1.26-1.26-1.92a40.27,40.27,0,0,1-5.34-15.51,3.3,3.3,0,1,0-6.57.57A47,47,0,0,0,185,225.65c-.3-.42-.6-.81-.87-1.23a38,38,0,0,1-6.12-17.1,3.27,3.27,0,0,0-3.45-3.12,3.33,3.33,0,0,0-3.15,3.45,44.36,44.36,0,0,0,7.05,20.16,41.2,41.2,0,0,0,15.15,13.83,50.42,50.42,0,0,0,14.13,4.92,39.9,39.9,0,0,0,10.65,1.35c1,0,2,0,3-.09s2,.09,3,.09a41.16,41.16,0,0,0,10.65-1.35,50.76,50.76,0,0,0,14.13-4.92,40.74,40.74,0,0,0,15.15-13.83,44.36,44.36,0,0,0,7.05-20.16A3.32,3.32,0,0,0,268.29,204.17Z" transform="translate(-167.13 -166.4)"/><path class="cls-2" d="M174.72,204.17a3.29,3.29,0,0,1,3.27,3.12,38,38,0,0,0,6.12,17.1c.27.42.57.84.87,1.23a46.72,46.72,0,0,1-3.39-12.69,3.28,3.28,0,0,1,3-3.57h.3a3.29,3.29,0,0,1,3.27,3,40.43,40.43,0,0,0,5.34,15.51c.42.66.84,1.29,1.26,1.92a17.07,17.07,0,0,1-.87-3.42,3.3,3.3,0,0,1,2.88-3.66,1.85,1.85,0,0,1,.39,0,3.3,3.3,0,0,1,3.27,2.88c.09.6,2.1,13.17,21,15.6,19.14-2.49,20.94-15.45,21-15.57a3.3,3.3,0,0,1,3.27-2.91,1.71,1.71,0,0,1,.39,0,3.3,3.3,0,0,1,2.88,3.66,17.07,17.07,0,0,1-.87,3.42c.45-.63.87-1.26,1.26-1.92a40.43,40.43,0,0,0,5.34-15.51,3.29,3.29,0,0,1,3.27-3h.3a3.32,3.32,0,0,1,3,3.57,47,47,0,0,1-3.39,12.69c.36-.48.69-1,1-1.47a37.3,37.3,0,0,0,6-16.86,3.32,3.32,0,0,1,3.3-3.15h.18a3.33,3.33,0,0,1,3.15,3.45,44.36,44.36,0,0,1-7,20.16,41.2,41.2,0,0,1-15.15,13.83,50.42,50.42,0,0,1-14.13,4.92,39.9,39.9,0,0,1-10.65,1.35c-1,0-2,0-3-.09s-2,.09-3,.09a41.16,41.16,0,0,1-10.65-1.35,50.76,50.76,0,0,1-14.13-4.92,40.74,40.74,0,0,1-15.15-13.83,44.36,44.36,0,0,1-7.05-20.16,3.29,3.29,0,0,1,3.15-3.45.22.22,0,0,0,.15,0m0-1.2h-.24a4.51,4.51,0,0,0-4.29,4.71,45.8,45.8,0,0,0,7.26,20.76A42.11,42.11,0,0,0,193,242.66a52,52,0,0,0,14.4,5,41.4,41.4,0,0,0,10.92,1.41c1,0,2,0,3-.09s2.07.09,3,.09a41.4,41.4,0,0,0,10.92-1.41,52,52,0,0,0,14.4-5,42.11,42.11,0,0,0,15.6-14.22,45.8,45.8,0,0,0,7.26-20.76,4.51,4.51,0,0,0-4.29-4.71h-.24a4.51,4.51,0,0,0-4.5,4.29,33,33,0,0,1-1.29,6.51q.09-.63.09-.72a4.5,4.5,0,0,0-4.08-4.86c-.15,0-.27,0-.42,0a4.47,4.47,0,0,0-4.47,4.08,40.31,40.31,0,0,1-3.6,12.12,4.5,4.5,0,0,0-3.66-2.85,3.26,3.26,0,0,0-.54,0,4.51,4.51,0,0,0-4.47,4,14.5,14.5,0,0,1-3.15,6.42c-3.54,4.38-9.15,7.11-16.62,8.1-17.79-2.37-19.68-14-19.77-14.55a4.55,4.55,0,0,0-4.47-3.93,3.26,3.26,0,0,0-.54,0,4.5,4.5,0,0,0-3.66,2.85,40.07,40.07,0,0,1-3.6-12.12,4.45,4.45,0,0,0-4.47-4.08,1.71,1.71,0,0,0-.39,0,4.52,4.52,0,0,0-3.06,1.59,4.41,4.41,0,0,0-1,3.3s0,.27.06.63a32.13,32.13,0,0,1-1.29-6.48,4.43,4.43,0,0,0-4.44-4.26Z" transform="translate(-167.13 -166.4)"/><path class="cls-3" d="M304.74,212v5.22a10.27,10.27,0,0,1-.92,4.14,7.72,7.72,0,0,1-2.21,2.81,6.53,6.53,0,0,1-4.3,1.29,7,7,0,0,1-4.34-1.29,6.6,6.6,0,0,1-2.17-2.81,10.27,10.27,0,0,1-.92-4.14V194.72a10.39,10.39,0,0,1,.92-4.1,7,7,0,0,1,2.17-2.85,7.23,7.23,0,0,1,4.34-1.29,7.1,7.1,0,0,1,4.3,1.29,6.81,6.81,0,0,1,2.21,2.85,10.23,10.23,0,0,1,.92,4.1v5.22h-5.22v-5.22a3.07,3.07,0,0,0-.84-2.37,1.9,1.9,0,0,0-3,1,4.89,4.89,0,0,0-.24,1.41v22.46a3.45,3.45,0,0,0,.88,2.37,1.34,1.34,0,0,0,1.08.4,1.81,1.81,0,0,0,1.93-1.41,3.59,3.59,0,0,0,.2-1.41V212Zm16.35,6.19a8,8,0,0,1-2.77,6.19,6.78,6.78,0,0,1-9.8-2.61,10.64,10.64,0,0,1-.84-3.74V203.72c.16-2.73,1-4.78,2.77-6.31a5.79,5.79,0,0,1,3.9-1.12,6.07,6.07,0,0,1,5.91,3.66,10.38,10.38,0,0,1,.84,3.62v14.58Zm-4.94-14.42a3.48,3.48,0,0,0-.68-2.49,1.66,1.66,0,0,0-1.12-.4c-1,0-1.41.68-1.61,1.45a3.27,3.27,0,0,0-.16,1.45V218a3.33,3.33,0,0,0,.68,2.41,1.49,1.49,0,0,0,1.08.4,1.62,1.62,0,0,0,1.65-1.41,3.27,3.27,0,0,0,.16-1.45V203.72ZM338,225.06h-5.22v-1.85a9.92,9.92,0,0,1-2.65,1.93,3.65,3.65,0,0,1-1.49.36,3.43,3.43,0,0,1-3.05-1.93,6.79,6.79,0,0,1-1-3.62V201.83a7.43,7.43,0,0,1,1-3.66,3.48,3.48,0,0,1,3.05-1.85,5.36,5.36,0,0,1,2.81,1.12c.48.36.88.72,1.33,1.12V186.93H338v38.13Zm-5.22-22.14a1.78,1.78,0,0,0-1.57-1.73,1.57,1.57,0,0,0-1.41,1.73v15.91a1.54,1.54,0,0,0,1.41,1.73,1.69,1.69,0,0,0,1.57-1.73Zm22.54,12v3.25a7.84,7.84,0,0,1-2.85,6.19,6.82,6.82,0,0,1-9.84-2.61,10.64,10.64,0,0,1-.84-3.74V203.72a8.25,8.25,0,0,1,2.89-6.31,5.79,5.79,0,0,1,3.9-1.12,6.07,6.07,0,0,1,5.91,3.66,10.38,10.38,0,0,1,.84,3.62v8.24h-8.64V218a3.76,3.76,0,0,0,.84,2.41,1.49,1.49,0,0,0,1.08.4,1.62,1.62,0,0,0,1.65-1.41,3.94,3.94,0,0,0,.2-1.45v-3.09h4.86v0Zm-8.64-7.15h3.78v-4a3.68,3.68,0,0,0-.72-2.49,1.66,1.66,0,0,0-1.12-.4c-1,0-1.41.68-1.65,1.45a4.93,4.93,0,0,0-.24,1.45l0,4Zm22.62-5.66a4.49,4.49,0,0,0-1.45-.2,3.72,3.72,0,0,0-2.65.88,3,3,0,0,0-1.12,2.57v19.73h-5.22v-28.4H364v3.17a4.25,4.25,0,0,1,1.25-2.09,5.68,5.68,0,0,1,4-1.49Zm2.29,23V187H376c5.18,0,8,1,9.52,3.94s1.65,7.67,1.65,15.15-.2,12.21-1.65,15.11-4.3,3.94-9.52,3.94Zm5.62-5.62c1.93,0,3-.2,3.58-2.09a16.78,16.78,0,0,0,.52-4c0-1.81,0-4.26,0-7.35s0-5.54,0-7.35a15.45,15.45,0,0,0-.52-4c-.56-1.81-1.65-2-3.58-2v26.84Zm26.6-1.29a8,8,0,0,1-2.77,6.19,6.78,6.78,0,0,1-9.8-2.61,10.64,10.64,0,0,1-.84-3.74V203.76c.16-2.73,1-4.78,2.77-6.31a5.79,5.79,0,0,1,3.9-1.12,6.07,6.07,0,0,1,5.91,3.66,10.38,10.38,0,0,1,.84,3.62v14.58Zm-4.9-14.42a3.48,3.48,0,0,0-.68-2.49,1.66,1.66,0,0,0-1.12-.4c-1,0-1.41.68-1.61,1.45a3.27,3.27,0,0,0-.16,1.45V218a3.33,3.33,0,0,0,.68,2.41,1.49,1.49,0,0,0,1.08.4,1.62,1.62,0,0,0,1.65-1.41,3.27,3.27,0,0,0,.16-1.45V203.76Zm8.4-16.79h5.22v5.22h-5.22Zm5.26,9.76v29.13a15.94,15.94,0,0,1-.72,5.58,5.17,5.17,0,0,1-5.3,3.41,6.2,6.2,0,0,1-1.77-.16c-.2,0-.36-.12-.52-.16v-4.82a2.12,2.12,0,0,1,.48.12,9.71,9.71,0,0,0,1,.12c.88,0,1.29-.72,1.49-1.61a13.3,13.3,0,0,0,.12-1.37V196.73Zm17.11,21.45a8,8,0,0,1-2.77,6.19,6.78,6.78,0,0,1-9.8-2.61,10.64,10.64,0,0,1-.84-3.74V203.76c.16-2.73,1-4.78,2.77-6.31a5.79,5.79,0,0,1,3.9-1.12A6.07,6.07,0,0,1,428.8,200a10.38,10.38,0,0,1,.84,3.62v14.58Zm-4.94-14.42a3.48,3.48,0,0,0-.68-2.49,1.66,1.66,0,0,0-1.12-.4c-1,0-1.41.68-1.61,1.45a3.27,3.27,0,0,0-.16,1.45V218a3.33,3.33,0,0,0,.68,2.41,1.49,1.49,0,0,0,1.08.4,1.62,1.62,0,0,0,1.65-1.41,3.27,3.27,0,0,0,.16-1.45V203.76Z" transform="translate(-167.13 -166.4)"/><path class="cls-3" d="M294.67,237.88l-.21-.79h-.14v9.72H292V229.68h2.24l2.45,8.92.21.79H297v-9.72h2.31V246.8h-2.24Z" transform="translate(-167.13 -166.4)"/><path class="cls-3" d="M307.11,242.24v1.47a3.5,3.5,0,0,1-1.28,2.77,2.68,2.68,0,0,1-1.77.51,2.71,2.71,0,0,1-2.66-1.68,4.69,4.69,0,0,1-.37-1.68v-6.41a3.7,3.7,0,0,1,1.3-2.84,2.56,2.56,0,0,1,1.75-.51,2.73,2.73,0,0,1,2.66,1.65,4.53,4.53,0,0,1,.37,1.63v3.71h-3.89v2.77a1.8,1.8,0,0,0,.37,1.1.67.67,0,0,0,.49.19.74.74,0,0,0,.75-.63,1.85,1.85,0,0,0,.09-.65v-1.4ZM303.22,239h1.7v-1.79a1.64,1.64,0,0,0-.33-1.12.72.72,0,0,0-.51-.19c-.44,0-.63.3-.75.65a2.46,2.46,0,0,0-.12.65Z" transform="translate(-167.13 -166.4)"/><path class="cls-3" d="M313.89,246.8l-.91-6.08-.12-.72h-.09l-.12.72-.91,6.08h-2l-1.89-12.75H310l.75,6.66.09.72H311l.12-.72,1-6.66h1.4l1,6.66.12.72h.14l.09-.72.75-6.66h2.14l-1.89,12.75Z" transform="translate(-167.13 -166.4)"/><path class="cls-3" d="M326.66,234.27a5.62,5.62,0,0,0-.19-1.68c-.16-.47-.42-.79-.82-.79-.65,0-.86.7-.86,1.7a3.86,3.86,0,0,0,.63,1.84c.37.65.86,1.33,1.35,2.05a26.53,26.53,0,0,1,1.61,2.61,5.88,5.88,0,0,1,.75,2.68,5.39,5.39,0,0,1-.72,3,3.68,3.68,0,0,1-5.8-.23A7.31,7.31,0,0,1,322,242l2.47-.23a6.46,6.46,0,0,0,.21,2c.16.56.44.93,1,.93.75,0,1-.79,1-1.89a4.25,4.25,0,0,0-.65-1.89c-.21-.33-.42-.68-.65-1-.49-.7-1-1.49-1.58-2.35a9.77,9.77,0,0,1-1.24-2.66,4.58,4.58,0,0,1-.21-1.37,4.78,4.78,0,0,1,.75-2.7,3.05,3.05,0,0,1,2.54-1.31A2.94,2.94,0,0,1,328.5,231a6.69,6.69,0,0,1,.63,3Z" transform="translate(-167.13 -166.4)"/><path class="cls-3" d="M336.31,243.7a3.56,3.56,0,0,1-1.26,2.77,3,3,0,0,1-4.4-1.17,4.67,4.67,0,0,1-.37-1.68v-6.41a3.74,3.74,0,0,1,1.26-2.84,2.57,2.57,0,0,1,1.75-.51,2.73,2.73,0,0,1,2.66,1.65,4.53,4.53,0,0,1,.37,1.63Zm-2.21-6.48a1.53,1.53,0,0,0-.3-1.12.72.72,0,0,0-.51-.19c-.44,0-.63.3-.72.65a1.44,1.44,0,0,0-.07.65v6.41a1.54,1.54,0,0,0,.3,1.1.67.67,0,0,0,.49.19.74.74,0,0,0,.75-.63,1.45,1.45,0,0,0,.07-.65Z" transform="translate(-167.13 -166.4)"/><path class="cls-3" d="M341.59,234.06h2.35V246.8h-2.35v-1.07a1.78,1.78,0,0,0-.26.23,4.71,4.71,0,0,1-1,.84,1.31,1.31,0,0,1-.63.19,1.54,1.54,0,0,1-1.35-.86,3.34,3.34,0,0,1-.42-1.63V234.06h2.35v10.09c0,.49.28.56.56.56a.75.75,0,0,0,.56-.3,1.65,1.65,0,0,0,.21-.3Z" transform="translate(-167.13 -166.4)"/><path class="cls-3" d="M348.54,230.91v3.15h1.61v2.12h-1.61v6.34a6.45,6.45,0,0,0,.09,1.33c.09.42.28.77.65.77a4.69,4.69,0,0,0,.58,0l.28,0v2.31l-.35.09a4.77,4.77,0,0,1-.91.07,2.26,2.26,0,0,1-2.35-1.58,8.14,8.14,0,0,1-.35-2.7v-6.52H345v-2.12h1.19v-3.15Z" transform="translate(-167.13 -166.4)"/><path class="cls-3" d="M353.76,246.8h-2.35V229.68h2.35v5.45a1.85,1.85,0,0,0,.28-.26,4.88,4.88,0,0,1,1-.84,1.19,1.19,0,0,1,.61-.16,1.56,1.56,0,0,1,1.35.84,3.48,3.48,0,0,1,.42,1.65V246.8h-2.35V236.71c0-.49-.28-.56-.56-.56a.75.75,0,0,0-.56.3,3.41,3.41,0,0,0-.21.3Z" transform="translate(-167.13 -166.4)"/><path class="cls-3" d="M366.46,246.8h-2l-2.31-17.13h2.33l1,8.9,0,.56h.19l.07-.56,1.07-8.9h1.82l1.07,8.9.07.56H370l0-.56,1-8.9h2.33l-2.31,17.13h-2L368,238.69l-.14-1h-.09l-.14,1Z" transform="translate(-167.13 -166.4)"/><path class="cls-3" d="M378.2,237.09a2.94,2.94,0,0,0-.07-.77.59.59,0,0,0-.58-.4c-.4,0-.56.3-.63.68a4.87,4.87,0,0,0,0,.61v.61h-2.35v-.54a3.6,3.6,0,0,1,.91-2.4,3,3,0,0,1,2.26-1,2.88,2.88,0,0,1,2,.82,2.83,2.83,0,0,1,.86,2.07v7.83a11.63,11.63,0,0,0,.16,2.21h-2.31a2,2,0,0,1-.21-1H378a2.6,2.6,0,0,1-.65.77,2,2,0,0,1-1.24.44,1.51,1.51,0,0,1-1.17-.58,3.76,3.76,0,0,1-.72-2.56,4.91,4.91,0,0,1,1-3.15,5.61,5.61,0,0,1,1.84-1.44c.58-.3,1-.51,1.12-.77Zm0,3.56a2.91,2.91,0,0,0-1.63,2.84,2.19,2.19,0,0,0,.12.7c.09.28.26.49.54.49a.88.88,0,0,0,1-.77Z" transform="translate(-167.13 -166.4)"/><path class="cls-3" d="M382.09,246.8V229.68h2.35V246.8Z" transform="translate(-167.13 -166.4)"/><path class="cls-3" d="M392.16,242.24v1.47a3.51,3.51,0,0,1-1.28,2.77,2.68,2.68,0,0,1-1.77.51,2.71,2.71,0,0,1-2.66-1.68,4.67,4.67,0,0,1-.37-1.68v-6.41a3.7,3.7,0,0,1,1.3-2.84,2.56,2.56,0,0,1,1.75-.51,2.73,2.73,0,0,1,2.66,1.65,4.53,4.53,0,0,1,.37,1.63v3.71h-3.89v2.77a1.8,1.8,0,0,0,.37,1.1.67.67,0,0,0,.49.19.74.74,0,0,0,.75-.63,1.85,1.85,0,0,0,.09-.65v-1.4ZM388.27,239H390v-1.79a1.64,1.64,0,0,0-.33-1.12.72.72,0,0,0-.51-.19c-.44,0-.63.3-.75.65a2.5,2.5,0,0,0-.12.65Z" transform="translate(-167.13 -166.4)"/><path class="cls-3" d="M397.24,237.32a3.47,3.47,0,0,0-.09-1,.71.71,0,0,0-.68-.51.64.64,0,0,0-.58.51,2.77,2.77,0,0,0-.14,1,2,2,0,0,0,.51,1.19,8.82,8.82,0,0,0,1,1.09,10.27,10.27,0,0,1,1.47,1.68,4.23,4.23,0,0,1,.7,2.21,4,4,0,0,1-.65,2.33,2.75,2.75,0,0,1-2.35,1.17,3,3,0,0,1-2.73-1.44,5,5,0,0,1-.56-2.45h2.19a3.21,3.21,0,0,0,.19,1.21,1,1,0,0,0,.91.72c.68,0,.82-.79.82-1.54s-.75-1.54-1.47-2.26a10.11,10.11,0,0,1-1.51-1.65,3.9,3.9,0,0,1-.72-2.26,4.23,4.23,0,0,1,.58-2.28,2.67,2.67,0,0,1,2.28-1.17A2.63,2.63,0,0,1,399,235a4.63,4.63,0,0,1,.47,2.28Z" transform="translate(-167.13 -166.4)"/></svg>